<?xml version="1.0" encoding="UTF-8"?>
<svg width="13px" height="13px" viewBox="0 0 13 13" version="1.1" xmlns="http://www.w3.org/2000/svg" xmlns:xlink="http://www.w3.org/1999/xlink">
    <!-- Generator: Sketch 61.2 (89653) - https://sketch.com -->
    <title>多选填空</title>
    <desc>Created with Sketch.</desc>
    <g id="题库管理-解答管理" stroke="none" stroke-width="1" fill="none" fill-rule="evenodd">
        <g transform="translate(-61.000000, -911.000000)" fill-rule="nonzero" id="nav">
            <g transform="translate(-2.000000, 0.000000)">
                <g id="批量上传信息" transform="translate(4.000000, 892.000000)">
                    <g id="sidebar/1">
                        <g id="多选填空" transform="translate(58.000000, 17.000000)">
                            <rect id="矩形" fill="#000000" opacity="0" x="0" y="0" width="16" height="16"></rect>
                            <path d="M11.6,2.192 L3.6,2.192 C2.4954305,2.192 1.6,3.0874305 1.6,4.192 L1.6,12.192 C1.6,13.2965695 2.4954305,14.192 3.6,14.192 L11.6,14.192 C12.7045695,14.192 13.6,13.2965695 13.6,12.192 L13.6,4.192 C13.6,3.0874305 12.7045695,2.192 11.6,2.192 Z M12.8,12.192 C12.8,12.8547417 12.2627417,13.392 11.6,13.392 L3.6,13.392 C2.9372583,13.392 2.4,12.8547417 2.4,12.192 L2.4,4.192 C2.4,3.5292583 2.9372583,2.992 3.6,2.992 L11.6,2.992 C12.2627417,2.992 12.8,3.5292583 12.8,4.192 L12.8,12.192 Z" id="形状" fill="#FFFFFF"></path>
                            <path d="M10.8,5.216 L4.4,5.216 C4.17908611,5.216 4.00000002,5.39508611 4.00000002,5.616 C4.00000002,5.83691389 4.17908611,6.016 4.4,6.016 L10.8,6.016 C11.0209139,6.016 11.2,5.83691389 11.2,5.616 C11.2,5.39508611 11.0209139,5.216 10.8,5.216 Z M4.4,8.648 L10.8,8.648 C10.9429062,8.648 11.0749571,8.57176044 11.1464102,8.44800001 C11.2178633,8.32423957 11.2178633,8.17176043 11.1464102,8.04799999 C11.0749571,7.92423956 10.9429062,7.848 10.8,7.848 L4.4,7.848 C4.1790861,7.848 4,8.0270861 4,8.248 C4,8.4689139 4.1790861,8.648 4.4,8.648 Z M10.8,10.488 L4.4,10.488 C4.1790861,10.488 4,10.6670861 4,10.888 C4,11.1089139 4.1790861,11.288 4.4,11.288 L10.8,11.288 C11.0209139,11.288 11.2,11.1089139 11.2,10.888 C11.2,10.6670861 11.0209139,10.488 10.8,10.488 Z" id="形状" fill="#FFFFFF"></path>
                        </g>
                    </g>
                </g>
            </g>
        </g>
    </g>
</svg>