<?xml version="1.0" encoding="UTF-8"?>
<svg width="14px" height="14px" viewBox="0 0 14 14" version="1.1" xmlns="http://www.w3.org/2000/svg" xmlns:xlink="http://www.w3.org/1999/xlink">
    <!-- Generator: Sketch 61.2 (89653) - https://sketch.com -->
    <title>列表</title>
    <desc>Created with Sketch.</desc>
    <g id="教师信息管理" stroke="none" stroke-width="1" fill="none" fill-rule="evenodd">
        <g transform="translate(-57.000000, -181.000000)" fill-rule="nonzero" id="nav">
            <g transform="translate(-1.000000, 0.000000)">
                <g id="学生信息管理" transform="translate(2.000000, 160.000000)">
                    <g id="sidebar/1">
                        <g id="列表" transform="translate(55.000000, 20.000000)">
                            <rect id="矩形" fill="#000000" opacity="0" x="0" y="0" width="16" height="16"></rect>
                            <path d="M5.5,3.5 C5.8,3.5 6,3.3 6,3 L6,1.5 C6,1.2 5.8,1 5.5,1 C5.2,1 5,1.2 5,1.5 L5,3 C5,3.3 5.2,3.5 5.5,3.5 Z M11,3.5 C11.3,3.5 11.5,3.3 11.5,3 L11.5,1.5 C11.5,1.2 11.3,1 11,1 C10.7,1 10.5,1.2 10.5,1.5 L10.5,3 C10.5,3.3 10.7,3.5 11,3.5 Z M13.5,13.5 C13.5,13.8 13.3,14 13,14 L3,14 C2.7,14 2.5,13.8 2.5,13.5 L2.5,6 L13.5,6 L13.5,13.5 Z M13.2,2 L12.5,2 C12.2,2 12,2.2 12,2.5 C12,2.8 12.2,3 12.5,3 L13.2,3 C13.3,3 13.5,3.2 13.5,3.5 L13.5,5 L2.5,5 L2.5,3.5 C2.5,3.2 2.7,3 3,3 L4,3 C4.3,3 4.5,2.8 4.5,2.5 C4.5,2.2 4.3,2 4,2 L3,2 C2.2,2 1.5,2.7 1.5,3.5 L1.5,13.5 C1.5,14.3 2.2,15 3,15 L13,15 C13.8,15 14.5,14.3 14.5,13.5 L14.5,3.5 C14.5,2.7 13.9,2 13.2,2 Z M7,3 L9.5,3 C9.8,3 10,2.8 10,2.5 C10,2.2 9.8,2 9.5,2 L7,2 C6.7,2 6.5,2.2 6.5,2.5 C6.5,2.8 6.7,3 7,3 Z M4,12 L12,12 C12.3,12 12.5,11.8 12.5,11.5 C12.5,11.2 12.3,11 12,11 L4,11 C3.7,11 3.5,11.2 3.5,11.5 C3.5,11.8 3.7,12 4,12 Z M4,9 L12,9 C12.3,9 12.5,8.8 12.5,8.5 C12.5,8.2 12.3,8 12,8 L4,8 C3.7,8 3.5,8.2 3.5,8.5 C3.5,8.8 3.7,9 4,9 Z" id="形状" fill="#FFFFFF"></path>
                        </g>
                    </g>
                </g>
            </g>
        </g>
    </g>
</svg>