<?xml version="1.0" encoding="UTF-8"?>
<svg width="16px" height="16px" viewBox="0 0 16 16" version="1.1" xmlns="http://www.w3.org/2000/svg" xmlns:xlink="http://www.w3.org/1999/xlink">
    <!-- Generator: Sketch 61.2 (89653) - https://sketch.com -->
    <title>判断</title>
    <desc>Created with Sketch.</desc>
    <g id="题库管理-解答管理" stroke="none" stroke-width="1" fill="none" fill-rule="evenodd">
        <g transform="translate(-57.000000, -798.000000)" fill-rule="nonzero" id="nav">
            <g transform="translate(-2.000000, 0.000000)">
                <g id="批量上传信息" transform="translate(4.000000, 781.000000)">
                    <g id="sidebar/1">
                        <g id="判断" transform="translate(55.000000, 17.000000)">
                            <rect id="矩形" fill="#000000" opacity="0" x="0" y="0" width="16" height="16"></rect>
                            <path d="M14.2857143,16 L1.71428572,16 C0.8,16 0,15.2 0,14.2857143 L0,1.71428572 C0,0.8 0.8,0 1.71428572,0 L14.2857143,0 C15.2,0 16,0.8 16,1.71428572 L16,14.2857143 C16,15.2 15.2,16 14.2857143,16 Z M1.71428572,1.14285714 C1.37142858,1.14285714 1.14285714,1.37142856 1.14285714,1.71428572 L1.14285714,14.2857143 C1.14285714,14.6285714 1.37142856,14.8571429 1.71428572,14.8571429 L14.2857143,14.8571429 C14.6285714,14.8571429 14.8571429,14.6285714 14.8571429,14.2857143 L14.8571429,1.71428572 C14.8571429,1.37142858 14.6285714,1.14285714 14.2857143,1.14285714 L1.71428572,1.14285714 Z M8.11428572,3.88571428 L7.2,2.97142858 L5.02857142,5.02857142 L3.77142858,3.77142858 L2.85714286,4.68571428 L5.02857142,6.85714286 L8.11428572,3.88571428 Z M11.7714286,9.6 L10.7428571,10.5142857 L9.71428572,9.48571428 L8.8,10.5142857 L9.82857142,11.4285714 L8.8,12.5714286 L9.71428572,13.4857143 L10.7428571,12.4571429 L11.7714286,13.4857143 L12.6857143,12.5714286 L11.7714286,11.4285714 L12.8,10.4 L11.7714286,9.6 L11.7714286,9.6 Z M3.54285714,11.5428571 L11.5428571,3.54285714 L12.4571429,4.45714286 L4.45714286,12.4571429 L3.54285714,11.5428571 Z" id="形状" fill="#FFFFFF"></path>
                        </g>
                    </g>
                </g>
            </g>
        </g>
    </g>
</svg>