<?xml version="1.0" encoding="UTF-8"?>
<svg width="16px" height="12px" viewBox="0 0 16 12" version="1.1" xmlns="http://www.w3.org/2000/svg" xmlns:xlink="http://www.w3.org/1999/xlink">
    <!-- Generator: Sketch 61.2 (89653) - https://sketch.com -->
    <title>判断题</title>
    <desc>Created with Sketch.</desc>
    <g id="题库管理-多选管理" stroke="none" stroke-width="1" fill="none" fill-rule="evenodd">
        <g transform="translate(-194.000000, -762.000000)" fill-rule="nonzero" id="判断题">
            <g transform="translate(194.000000, 760.000000)">
                <rect id="矩形" fill="#000000" opacity="0" x="0" y="0" width="16" height="16"></rect>
                <path d="M5.1354,2.6692 C5.291,2.5136 5.291,2.259 5.1354,2.1036 C4.9798,1.9482 4.7252,1.948 4.5698,2.1036 C4.4144,2.2592 4.4142,2.5138 4.5698,2.6692 C4.7254,2.8246 4.9798,2.8248 5.1354,2.6692 Z M9.9436,7.4776 C9.788,7.6332 9.788,7.8878 9.9436,8.0432 C10.0992,8.1986 10.3538,8.1988 10.5092,8.0432 C10.6646,7.8876 10.6648,7.633 10.5092,7.4776 C10.3536,7.3222 10.0992,7.322 9.9436,7.4776 Z M15.3176,12.8516 C15.162,13.0072 15.162,13.2618 15.3176,13.4172 C15.4732,13.5726 15.7278,13.5728 15.8832,13.4172 C16.0386,13.2616 16.0388,13.007 15.8832,12.8516 C15.7276,12.6962 15.4732,12.696 15.3176,12.8516 Z M11.8558,8.824 L16,4.6798 L13.3334,2.013 L9.189,6.1574 L6.2666,3.235 C6.111,3.0794 5.8564,3.0794 5.701,3.235 C5.5456,3.3906 5.5454,3.6452 5.701,3.8006 L8.6234,6.723 L6.6666,8.6798 L2.6666,4.6798 L0,7.3464 L4,11.3464 L6.6666,14.013 L9.3332,11.3464 L11.29,9.3896 L14.1862,12.286 C14.3418,12.4416 14.5964,12.4416 14.7518,12.286 C14.9074,12.1304 14.9074,11.8758 14.7518,11.7204 L11.8558,8.824 Z M8.7676,10.7808 L6.6666,12.8818 L4.5656,10.7808 L1.1314,7.3464 L2.6666,5.811 L6.101,9.2454 C6.2572,9.4016 6.462,9.4798 6.6666,9.4798 C6.8712,9.4798 7.076,9.4016 7.2322,9.2454 L13.3332,3.1444 L14.8684,4.6798 L8.7676,10.7808 Z" id="形状" fill="#FFFFFF"></path>
            </g>
        </g>
    </g>
</svg>