<?xml version="1.0" encoding="UTF-8"?>
<svg width="14px" height="14px" viewBox="0 0 14 14" version="1.1" xmlns="http://www.w3.org/2000/svg" xmlns:xlink="http://www.w3.org/1999/xlink">
    <!-- Generator: Sketch 61.2 (89653) - https://sketch.com -->
    <title>符号-轮播图</title>
    <desc>Created with Sketch.</desc>
    <g id="教师信息管理" stroke="none" stroke-width="1" fill="none" fill-rule="evenodd">
        <g transform="translate(-22.000000, -353.000000)" fill-rule="nonzero" id="nav">
            <g transform="translate(-1.000000, 0.000000)">
                <g id="轮播图管理" transform="translate(0.000000, 332.000000)">
                    <g id="sidebar/1">
                        <g id="符号-轮播图" transform="translate(22.000000, 20.000000)">
                            <rect id="矩形" fill="#000000" opacity="0" x="0" y="0" width="16" height="16"></rect>
                            <path d="M6.45,7 C7.05,7 7.65,6.65 7.85,6.1 C8.1,5.55 7.95,4.9 7.55,4.45 C7.15,4 6.45,3.9 5.9,4.15 C5.35,4.35 5,4.95 5,5.55 C5,6.35 5.65,7 6.45,7 L6.45,7 Z M6.15,5.15 C6.25,5.05 6.35,5 6.5,5 C6.75,5 7,5.2 7,5.45 C7,5.7 6.8,5.95 6.55,6 C6.3,6 6.05,5.8 6,5.55 C6,5.4 6.05,5.25 6.15,5.15 L6.15,5.15 Z" id="形状" fill="#FFFFFF"></path>
                            <path d="M14,3.5 L13.5,3.5 L13.5,2.5 C13.5,1.95 13.05,1.5 12.5,1.5 L3.5,1.5 C2.95,1.5 2.5,1.95 2.5,2.5 L2.5,3.5 L2,3.5 C1.45,3.5 1,3.95 1,4.5 L1,11.5 C1,12.05 1.45,12.5 2,12.5 L2.5,12.5 L2.5,13.5 C2.5,14.05 2.95,14.5 3.5,14.5 L12.5,14.5 C13.05,14.5 13.5,14.05 13.5,13.5 L13.5,12.5 L14,12.5 C14.55,12.5 15,12.05 15,11.5 L15,4.5 C15,3.95 14.55,3.5 14,3.5 Z M2.5,11.5 C2.2,11.5 2,11.3 2,11 L2,5 C2,4.7 2.2,4.5 2.5,4.5 L2.5,11.5 Z M12.5,13 C12.5,13.3 12.3,13.5 12,13.5 L4,13.5 C3.75,13.5 3.5,13.3 3.5,13 L3.5,3 C3.5,2.7 3.7,2.5 4,2.5 L12,2.5 C12.25,2.5 12.5,2.7 12.5,3 L12.5,13 Z M14,11 C14,11.3 13.8,11.5 13.5,11.5 L13.5,4.5 C13.75,4.5 14,4.7 14,5 L14,11 Z" id="形状" fill="#FFFFFF"></path>
                            <path d="M10.7,7.25 L8.6,9.35 L7.55,8.3 C7.45,8.2 7.35,8.15 7.2,8.15 C7.05,8.15 6.95,8.2 6.85,8.3 L4.35,10.8 C4.15,11 4.15,11.3 4.35,11.5 C4.55,11.7 4.85,11.7 5.05,11.5 L7.15,9.4 L8.2,10.45 C8.3,10.55 8.4,10.6 8.55,10.6 C8.7,10.6 8.8,10.55 8.9,10.45 L11.4,7.95 C11.6,7.75 11.6,7.45 11.4,7.25 C11.25,7.05 10.9,7.05 10.7,7.25 L10.7,7.25 Z" id="路径" fill="#FFFFFF"></path>
                        </g>
                    </g>
                </g>
            </g>
        </g>
    </g>
</svg>