<?xml version="1.0" encoding="UTF-8"?>
<svg width="16px" height="15px" viewBox="0 0 16 15" version="1.1" xmlns="http://www.w3.org/2000/svg" xmlns:xlink="http://www.w3.org/1999/xlink">
    <!-- Generator: Sketch 61.2 (89653) - https://sketch.com -->
    <title>多选框</title>
    <desc>Created with Sketch.</desc>
    <g id="题库管理-多选管理" stroke="none" stroke-width="1" fill="none" fill-rule="evenodd">
        <g transform="translate(-190.000000, -724.000000)" fill-rule="nonzero" id="多选框">
            <g transform="translate(190.000000, 724.000000)">
                <rect id="矩形" fill="#000000" opacity="0" x="0" y="0" width="14.6547406" height="14.6547406"></rect>
                <path d="M5.58479781,0.978917352 L15.278229,0.978917352 C15.7549871,0.978917352 15.9933662,1.21729643 15.9933662,1.69405458 L15.9933662,1.69210065 C15.9933662,2.16885881 15.7549871,2.40723788 15.278229,2.40723788 L5.58479781,2.40723788 C5.10803966,2.40723788 4.86966058,2.16885881 4.86966058,1.69210065 L4.86966058,1.69405458 C4.86966058,1.21729643 5.10803966,0.978917352 5.58479781,0.978917352 Z" id="路径" fill="#FFFFFF"></path>
                <path d="M5.58479781,6.79575761 L15.278229,6.79575761 C15.7549871,6.79575761 15.9933662,7.03413669 15.9933662,7.51089484 L15.9933662,7.50894091 C15.9933662,7.98569906 15.7549871,8.22407814 15.278229,8.22407814 L5.58479781,8.22407814 C5.10803966,8.22407814 4.86966058,7.98569906 4.86966058,7.50894091 L4.86966058,7.51089484 C4.86966058,7.03413669 5.10803966,6.79575761 5.58479781,6.79575761 L5.58479781,6.79575761 Z" id="路径" fill="#FFFFFF"></path>
                <path d="M5.58479781,12.6145518 L15.278229,12.6145518 C15.7549871,12.6145518 15.9933662,12.8529309 15.9933662,13.329689 L15.9933662,13.3277351 C15.9933662,13.8044932 15.7549871,14.0428723 15.278229,14.0428723 L5.58479781,14.0428723 C5.10803966,14.0428723 4.86966058,13.8044932 4.86966058,13.3277351 L4.86966058,13.329689 C4.86966058,12.8529309 5.10803966,12.6145518 5.58479781,12.6145518 Z" id="路径" fill="#FFFFFF"></path>
                <path d="M4.3108375,0.152406297 C4.21416138,0.0550282941 4.08267094,0.000182009225 3.94545318,-1.66259645e-08 C3.80819194,-3.48900376e-05 3.67662144,0.054844784 3.58006885,0.152406297 L1.76096295,1.97542005 L0.883649789,1.09029119 C0.786973678,0.992913189 0.655483231,0.938066904 0.518265474,0.937884894 C0.309303465,0.938487892 0.121184266,1.06463592 0.0412995109,1.25772634 C-0.0385852444,1.45081677 0.00542344637,1.67300001 0.152881145,1.82105984 L1.39948648,3.07352694 C1.49528252,3.16959465 1.62529493,3.22370793 1.76096295,3.22398444 C1.89776788,3.22459568 2.02894846,3.16958447 2.12439335,3.07157302 L4.3108375,0.881221009 C4.50970173,0.678979311 4.50970173,0.354647995 4.3108375,0.152406297 Z M4.3108375,6.05717325 C4.21396284,5.96032858 4.08243232,5.90616896 3.94545318,5.90671279 C3.80843144,5.90595089 3.67682021,5.96014375 3.58006885,6.05717325 L1.76096295,7.87823309 L0.883649789,6.99310421 C0.787296125,6.89500875 0.655765511,6.83944235 0.518265474,6.838744 C0.308444253,6.83855749 0.119252479,6.96501453 0.0391908199,7.15896069 C-0.0408708395,7.35290684 0.0040267021,7.57599678 0.152881145,7.72387286 L1.39948648,8.97438606 C1.49568157,9.07187987 1.62693203,9.12676183 1.76389384,9.12676183 C1.90085565,9.12676183 2.03210611,9.07187987 2.12830119,8.97438606 L4.3108375,6.78403405 C4.50739167,6.58161054 4.50739167,6.25959676 4.3108375,6.05717325 L4.3108375,6.05717325 Z M4.3108375,11.5828784 C4.21416138,11.4855004 4.08267094,11.4306541 3.94545318,11.4304721 C3.80819194,11.4304372 3.67662144,11.4853169 3.58006885,11.5828784 L1.76096295,13.4058922 L0.883649789,12.5207633 C0.786775133,12.4239186 0.65524462,12.369759 0.518265474,12.3703109 C0.381243731,12.3695409 0.2496325,12.4237338 0.152881145,12.5207633 C-0.048332131,12.7228006 -0.048332131,13.0494947 0.152881145,13.2515319 L1.39948648,14.5039991 C1.60085423,14.7049872 1.92693344,14.7049872 2.12830119,14.5039991 L4.3108375,12.3097392 C4.50739167,12.1073157 4.50739167,11.7853019 4.3108375,11.5828784 L4.3108375,11.5828784 Z" id="形状" fill="#FFFFFF"></path>
            </g>
        </g>
    </g>
</svg>