<?xml version="1.0" encoding="UTF-8"?>
<svg width="16px" height="14px" viewBox="0 0 16 14" version="1.1" xmlns="http://www.w3.org/2000/svg" xmlns:xlink="http://www.w3.org/1999/xlink">
    <!-- Generator: Sketch 61.2 (89653) - https://sketch.com -->
    <title>多选</title>
    <desc>Created with Sketch.</desc>
    <g id="题库管理-解答管理" stroke="none" stroke-width="1" fill="none" fill-rule="evenodd">
        <g transform="translate(-59.000000, -743.000000)" fill-rule="nonzero" id="nav">
            <g transform="translate(-2.000000, 0.000000)">
                <g id="批量上传信息" transform="translate(4.000000, 725.000000)">
                    <g id="sidebar/1">
                        <g id="多选" transform="translate(57.000000, 17.000000)">
                            <rect id="矩形" fill="#000000" opacity="0" x="0" y="0" width="16" height="16"></rect>
                            <path d="M12.9131649,4.05865623 L12.6706893,3.47393267 C9.78640483,5.31890578 7.6966217,7.63958836 6.75505208,8.80905147 L4.45734592,6.92663175 L3.43818092,7.77998917 L7.41175884,12.0013831 C8.09988428,10.1737742 10.2658078,6.5992537 12.9131649,4.05865623 Z M14.0346445,1.05258234 L1.9653395,1.05258234 C1.40987611,1.05258234 0.959557422,1.50288503 0.959557422,2.05836442 L0.959557422,13.9416036 C0.959557422,14.497067 1.40986011,14.9474176 1.9653395,14.9474176 L14.0346445,14.9474176 C14.5901399,14.9474176 15.0404266,14.497083 15.0404266,13.9416036 L15.0404266,2.05836442 C15.0404266,1.50290103 14.5901559,1.05258234 14.0346445,1.05258234 Z M14.0346445,13.9548586 L1.9653395,13.9548586 L1.9653395,2.04504545 L14.0346445,2.04504545 L14.0346445,13.9548586 Z" id="形状" fill="#FFFFFF"></path>
                        </g>
                    </g>
                </g>
            </g>
        </g>
    </g>
</svg>