<?xml version="1.0" encoding="UTF-8"?>
<svg width="14px" height="14px" viewBox="0 0 14 14" version="1.1" xmlns="http://www.w3.org/2000/svg" xmlns:xlink="http://www.w3.org/1999/xlink">
    <!-- Generator: Sketch 61.2 (89653) - https://sketch.com -->
    <title>试卷</title>
    <desc>Created with Sketch.</desc>
    <g id="---" stroke="none" stroke-width="1" fill="none" fill-rule="evenodd">
        <g id="试卷管理" transform="translate(-20.000000, -467.000000)" fill-rule="nonzero">
            <g id="nav" transform="translate(-2.000000, 0.000000)">
                <g id="试卷管理" transform="translate(4.000000, 447.000000)">
                    <g id="试卷" transform="translate(17.000000, 19.000000)">
                        <rect id="矩形" fill="#000000" opacity="0" x="0" y="0" width="16" height="16"></rect>
                        <path d="M12.98,14.959 L3.019,14.959 C1.92694131,14.9567994 1.04220063,14.0720587 1.04,12.98 L1.04,3.019 C1.04,1.929 1.928,1.04 3.019,1.04 L12.981,1.04 C14.0733524,1.04110325 14.9584489,1.92664723 14.959,3.019 L14.959,12.98 C14.9567994,14.0720587 14.0720587,14.9567994 12.98,14.959 Z M2.94,1.949 C2.39369451,1.95010032 1.95110032,2.39269451 1.95,2.939 L1.95,13.059 C1.95,13.605 2.394,14.049 2.94,14.049 L13.059,14.049 C13.6051429,14.0478981 14.04745,13.6051437 14.048,13.059 L14.048,2.94 C14.048,2.39362838 13.6053713,1.95055189 13.059,1.95 L2.94,1.95 L2.94,1.949 Z" id="形状" fill="#FFFFFF"></path>
                        <path d="M7.112,6.78 L5.91,3.916 C5.807,3.666 5.755,3.586 5.715,3.543 C5.62205721,3.43538945 5.48506901,3.37610154 5.343,3.382 C5.19569569,3.37677937 5.05506142,3.44355267 4.966,3.561 C4.932,3.602 4.88,3.683 4.782,3.921 L4.782,3.923 L3.624,6.801 C3.5753952,6.90099051 3.54588951,7.00917804 3.537,7.12 C3.537,7.188 3.558,7.29 3.656,7.39 L3.661,7.394 C3.73834907,7.46602187 3.8403142,7.50573461 3.946,7.505 C4.06275057,7.50896968 4.17458515,7.45786646 4.248,7.367 C4.291,7.314 4.333,7.231 4.385,7.096 L4.658,6.387 L6.059,6.387 L6.345,7.084 C6.418,7.264 6.451,7.322 6.472,7.353 L6.476,7.357 C6.54898599,7.45451708 6.66529189,7.50986523 6.787,7.505 C6.89521248,7.50469683 6.99925395,7.46322325 7.078,7.389 L7.085,7.381 C7.15673404,7.30880121 7.19791598,7.21175507 7.2,7.11 C7.19166146,6.99544793 7.16180703,6.8834938 7.112,6.78 L7.112,6.78 Z M5.771,5.652 L4.927,5.652 L5.341,4.576 L5.771,5.652 L5.771,5.652 Z M12.01,5.621 C11.9181804,5.50617993 11.8051252,5.41009999 11.677,5.338 C11.921,5.134 12.048,4.858 12.048,4.523 C12.048,4.095 11.866,3.771 11.51,3.563 C11.307,3.441 11.027,3.382 10.651,3.382 L9.549,3.382 C9.302,3.382 9.153,3.42 9.07,3.505 C8.986,3.586 8.951,3.729 8.951,3.979 L8.951,6.955 C8.951,7.212 8.99,7.357 9.08,7.436 C9.169,7.517 9.313,7.553 9.549,7.553 L10.739,7.553 C11.1,7.553 11.405,7.486 11.641,7.354 C11.826,7.251 11.972,7.103 12.078,6.912 L12.079,6.91 C12.18,6.722 12.229,6.518 12.229,6.303 C12.229,6.037 12.156,5.807 12.01,5.621 L12.01,5.621 Z M9.804,5.778 L10.702,5.778 C10.936,5.778 11.116,5.834 11.236,5.943 L11.239,5.946 C11.326,6.02 11.368,6.131 11.368,6.281 C11.3764423,6.42226407 11.3192505,6.55952459 11.213,6.653 L11.212,6.655 C11.103,6.752 10.93,6.801 10.702,6.801 L9.804,6.801 L9.804,5.778 L9.804,5.778 Z M11.072,4.893 L11.071,4.895 C10.987,4.982 10.833,5.026 10.613,5.026 L9.803,5.026 L9.803,4.134 L10.462,4.134 C10.75,4.134 10.893,4.167 10.962,4.195 L10.966,4.196 C11.077,4.238 11.204,4.319 11.204,4.575 C11.2068299,4.69487481 11.1588896,4.81036727 11.072,4.893 Z M6.98,10.946 C6.90809116,10.8780445 6.81293844,10.8401265 6.714,10.84 C6.483,10.84 6.376,11.044 6.332,11.165 L6.332,11.166 C6.166,11.642 5.877,11.862 5.42,11.862 C5.17700087,11.8707397 4.94019028,11.7842679 4.76,11.621 C4.519,11.396 4.397,11.034 4.397,10.542 C4.397,10.047 4.522,9.677 4.772,9.442 C4.95736468,9.26686097 5.2051338,9.17322729 5.46,9.182 C5.627,9.182 5.77,9.221 5.898,9.301 L5.901,9.303 C6.0440331,9.390012 6.15975901,9.51543948 6.235,9.665 C6.286,9.762 6.439,10.058 6.693,10.058 C6.80652515,10.0627164 6.9150562,10.0110705 6.983,9.92 C7.03620007,9.84787481 7.06493359,9.76062302 7.065,9.671 C7.065,9.552 7.013,9.405 6.905,9.226 C6.77674283,9.01207075 6.59868975,8.83230232 6.386,8.702 C6.10219391,8.52645955 5.7736304,8.43685132 5.44,8.444 C4.89,8.444 4.432,8.64 4.082,9.027 C3.728,9.407 3.549,9.91 3.549,10.521 C3.549,11.178 3.742,11.712 4.125,12.11 C4.439,12.435 4.89,12.6 5.466,12.6 C5.981,12.6 6.404,12.416 6.721,12.054 C6.97,11.77 7.09602684,11.49 7.09602684,11.216 C7.09724532,11.1136475 7.05510062,11.0155521 6.98,10.946 L6.98,10.946 Z M11.999,9.021 C11.8003664,8.77808021 11.5308142,8.60327335 11.228,8.521 C10.9896754,8.46190702 10.7444509,8.43533262 10.499,8.442 L9.568,8.442 C9.314,8.442 9.163,8.483 9.077,8.575 C9,8.659 8.964,8.803 8.964,9.04 L8.964,11.951 C8.964,12.227 8.994,12.384 9.066,12.472 C9.149,12.574 9.302,12.618 9.569,12.618 L10.505,12.618 C11.02,12.618 11.428,12.513 11.716,12.305 C12.211,11.951 12.462,11.354 12.462,10.525 C12.461,9.891 12.305,9.385 11.999,9.021 L11.999,9.021 Z M11.599,10.551 C11.599,10.995 11.506,11.329 11.325,11.544 L11.323,11.546 C11.2362841,11.6615798 11.116756,11.748351 10.98,11.795 L10.973,11.797 C10.852,11.843 10.672,11.865 10.436,11.865 L9.817,11.865 L9.817,9.194 L10.409,9.194 C10.668,9.194 10.866,9.22 10.995,9.271 L11,9.273 C11.1284357,9.32144372 11.2395034,9.40709468 11.319,9.519 L11.32,9.52 C11.505,9.758 11.599,10.104 11.599,10.551 L11.599,10.551 Z" id="形状" fill="#FFFFFF"></path>
                    </g>
                </g>
            </g>
        </g>
    </g>
</svg>