<?xml version="1.0" encoding="UTF-8"?>
<svg width="16px" height="16px" viewBox="0 0 16 16" version="1.1" xmlns="http://www.w3.org/2000/svg" xmlns:xlink="http://www.w3.org/1999/xlink">
    <!-- Generator: Sketch 61.2 (89653) - https://sketch.com -->
    <title>题库</title>
    <desc>Created with Sketch.</desc>
    <g id="题库管理-解答管理" stroke="none" stroke-width="1" fill="none" fill-rule="evenodd">
        <g transform="translate(-20.000000, -521.000000)" fill-rule="nonzero" id="nav">
            <g transform="translate(-2.000000, 0.000000)">
                <g id="题库管理" transform="translate(4.000000, 503.000000)">
                    <g id="题库" transform="translate(18.000000, 18.000000)">
                        <rect id="矩形" fill="#000000" opacity="0" x="0" y="0" width="16" height="16"></rect>
                        <g id="KHCFDC_题库">
                            <rect id="矩形" fill="#000000" opacity="0" x="0" y="0" width="16" height="16"></rect>
                            <path d="M12.2666667,1.06666667 L12.2666667,6.4 C12.2666667,6.72 12.0533333,6.93333333 11.7333333,6.93333333 C11.6266667,6.93333333 11.52,6.93333333 11.4133333,6.82666667 L9.6,5.33333333 L7.78666667,6.82666667 C7.57333334,6.93333334 7.25333334,6.93333334 7.04,6.72 C6.93333333,6.61333333 6.93333333,6.50666667 6.93333333,6.4 L6.93333333,1.06666667 L2.66666667,1.06666667 C2.02666667,1.06666667 1.6,1.49333334 1.6,2.13333333 L1.6,13.8666667 C1.6,14.5066667 2.02666667,14.9333333 2.66666667,14.9333333 L13.3333333,14.9333333 C13.9733333,14.9333333 14.4,14.5066667 14.4,13.8666667 L14.4,2.13333333 C14.4,1.49333333 13.9733333,1.06666667 13.3333333,1.06666667 L12.2666667,1.06666667 Z M2.66666667,0 L13.3333333,0 C14.5066667,0 15.4666667,0.96 15.4666667,2.13333333 L15.4666667,13.8666667 C15.4666667,15.04 14.5066667,16 13.3333333,16 L2.66666667,16 C1.49333334,16 0.533333328,15.04 0.533333328,13.8666667 L0.533333328,2.13333333 C0.533333328,0.96 1.49333333,0 2.66666667,0 Z M3.73333333,1.06666667 L4.8,1.06666667 L4.8,14.9333333 L3.73333333,14.9333333 L3.73333333,1.06666667 Z M8,1.06666667 L8,5.22666667 L8.96,4.48 C9.38666667,4.16 9.92,4.16 10.24,4.48 L11.2,5.22666667 L11.2,1.06666667 L8,1.06666667 Z" id="形状" fill="#FFFFFF"></path>
                        </g>
                    </g>
                </g>
            </g>
        </g>
    </g>
</svg>