<?xml version="1.0" encoding="UTF-8"?>
<svg width="14px" height="14px" viewBox="0 0 14 14" version="1.1" xmlns="http://www.w3.org/2000/svg" xmlns:xlink="http://www.w3.org/1999/xlink">
    <!-- Generator: Sketch 61.2 (89653) - https://sketch.com -->
    <title>成绩单</title>
    <desc>Created with Sketch.</desc>
    <g id="成绩管理" stroke="none" stroke-width="1" fill="none" fill-rule="evenodd">
        <g transform="translate(-25.000000, -469.000000)" fill-rule="nonzero" id="nav">
            <g transform="translate(2.000000, 0.000000)">
                <g id="轮播图管理" transform="translate(0.000000, 447.000000)">
                    <g id="sidebar/1">
                        <g id="成绩单" transform="translate(22.000000, 21.000000)">
                            <rect id="矩形" fill="#000000" opacity="0" x="0" y="0" width="16" height="16"></rect>
                            <path d="M11.6046875,14.96875 L2.9515625,14.96875 C2.078125,14.96875 1.36875,14.2578125 1.36875,13.384375 L1.36875,2.615625 C1.36875,1.7421875 2.078125,1.03125 2.9515625,1.03125 L11.6046875,1.03125 C12.478125,1.03125 13.1890625,1.7421875 13.1890625,2.615625 L13.1890625,6.9578125 L12.1890625,6.9578125 L12.1890625,2.615625 C12.1890625,2.29375 11.9265625,2.03125 11.6046875,2.03125 L2.9515625,2.03125 C2.6296875,2.03125 2.3671875,2.29375 2.3671875,2.615625 L2.3671875,13.3859375 C2.3671875,13.7078125 2.6296875,13.9703125 2.9515625,13.9703125 L11.6046875,13.9703125 C11.9265625,13.9703125 12.1890625,13.7078125 12.1890625,13.3859375 L12.1890625,9.3671875 L13.1890625,9.3671875 L13.1890625,13.384375 C13.1890625,14.2578125 12.478125,14.96875 11.6046875,14.96875 Z" id="路径" fill="#FFFFFF"></path>
                            <path d="M8.6296875,8.4984375 L3.86875,8.4984375 C3.5921875,8.4984375 3.36875,8.275 3.36875,7.9984375 C3.36875,7.721875 3.5921875,7.4984375 3.86875,7.4984375 L8.6296875,7.4984375 C8.90625,7.4984375 9.1296875,7.721875 9.1296875,7.9984375 C9.1296875,8.275 8.90625,8.4984375 8.6296875,8.4984375 Z M7.3640625,10.4953125 L3.86875,10.4953125 C3.5921875,10.4953125 3.36875,10.271875 3.36875,9.9953125 C3.36875,9.71875 3.5921875,9.4953125 3.86875,9.4953125 L7.3640625,9.4953125 C7.640625,9.4953125 7.8640625,9.71875 7.8640625,9.9953125 C7.8640625,10.271875 7.640625,10.4953125 7.3640625,10.4953125 L7.3640625,10.4953125 Z M6.3015625,12.4984375 L3.86875,12.4984375 C3.5921875,12.4984375 3.36875,12.275 3.36875,11.9984375 C3.36875,11.721875 3.5921875,11.4984375 3.86875,11.4984375 L6.3015625,11.4984375 C6.578125,11.4984375 6.8015625,11.721875 6.8015625,11.9984375 C6.8015625,12.275 6.578125,12.4984375 6.3015625,12.4984375 L6.3015625,12.4984375 Z M8.3671875,12.7703125 C8.234375,12.7703125 8.10625,12.7171875 8.0125,12.621875 C7.8984375,12.5078125 7.846875,12.34375 7.875,12.184375 C7.8765625,12.171875 8.103125,10.8578125 8.1609375,10.5171875 C8.178125,10.4140625 8.2265625,10.3203125 8.3,10.246875 L12.3171875,6.2296875 C12.4921875,6.0546875 12.740625,5.9765625 13,6.0140625 C13.209375,6.04375 13.4140625,6.1484375 13.5734375,6.309375 L14.3265625,7.0625 C14.4859375,7.221875 14.590625,7.4265625 14.621875,7.6359375 C14.659375,7.8953125 14.58125,8.1453125 14.40625,8.31875 L10.3890625,12.3375 C10.3203125,12.40625 10.23125,12.4546875 10.1359375,12.4734375 C9.7875,12.5453125 8.5015625,12.7546875 8.4484375,12.7625 C8.4203125,12.76875 8.39375,12.7703125 8.3671875,12.7703125 L8.3671875,12.7703125 Z M9.1203125,10.84375 C9.084375,11.0546875 9.0296875,11.3734375 8.9796875,11.6640625 C9.2703125,11.615625 9.5859375,11.5609375 9.790625,11.5234375 L13.58125,7.7328125 L12.90625,7.05625 L9.1203125,10.84375 Z M4.3109375,3.6703125 L4.3109375,6.00625 L3.928125,6.00625 L3.928125,4.225 C3.821875,4.3 3.5515625,4.415625 3.5515625,4.415625 L3.5515625,4.0359375 C3.803125,3.946875 3.93125,3.846875 4.0234375,3.66875 L4.3109375,3.66875 L4.3109375,3.6703125 Z" id="形状" fill="#FFFFFF"></path>
                            <path d="M4.459375,6.1546875 L3.7796875,6.1546875 L3.7796875,4.475 C3.696875,4.515625 3.6234375,4.546875 3.609375,4.553125 L3.403125,4.6421875 L3.403125,3.9328125 L3.503125,3.8984375 C3.7453125,3.8140625 3.8296875,3.7265625 3.8921875,3.603125 L3.934375,3.5234375 L4.4609375,3.5234375 L4.4609375,6.1546875 L4.459375,6.1546875 Z M4.0765625,5.8578125 L4.1625,5.8578125 L4.1625,3.81875 L4.1078125,3.81875 C4.015625,3.9609375 3.890625,4.059375 3.6984375,4.1390625 L3.6984375,4.184375 C3.75625,4.15625 3.809375,4.1265625 3.8421875,4.1046875 L4.0765625,3.940625 L4.0765625,5.8578125 L4.0765625,5.8578125 Z M6.665625,3.9640625 C6.809375,4.1796875 6.88125,4.471875 6.88125,4.8375 C6.88125,5.203125 6.809375,5.4953125 6.665625,5.7109375 C6.5109375,5.9375 6.2984375,6.0515625 6.028125,6.0515625 C5.753125,6.0515625 5.540625,5.9375 5.390625,5.7109375 C5.246875,5.4953125 5.175,5.203125 5.175,4.8375 C5.175,4.471875 5.246875,4.1796875 5.390625,3.9640625 C5.5390625,3.7375 5.7515625,3.6234375 6.028125,3.6234375 C6.3,3.625 6.5125,3.7375 6.665625,3.9640625 Z M5.634375,4.259375 C5.58125,4.3984375 5.55625,4.5921875 5.55625,4.8390625 C5.55625,5.08125 5.5828125,5.275 5.634375,5.41875 C5.7109375,5.6265625 5.8421875,5.7296875 6.0265625,5.7296875 C6.209375,5.7296875 6.340625,5.6265625 6.41875,5.41875 C6.471875,5.275 6.496875,5.08125 6.496875,4.8390625 C6.496875,4.5921875 6.4703125,4.4 6.41875,4.259375 C6.340625,4.0515625 6.209375,3.9484375 6.0265625,3.9484375 C5.8390625,3.9484375 5.7078125,4.0515625 5.634375,4.259375 Z" id="形状" fill="#FFFFFF"></path>
                            <path d="M6.0265625,6.2 C5.7,6.2 5.44375,6.0625 5.2640625,5.79375 C5.1046875,5.5546875 5.0234375,5.2328125 5.0234375,4.8375 C5.0234375,4.4421875 5.1046875,4.121875 5.2640625,3.88125 C5.440625,3.6125 5.696875,3.475 6.025,3.475 C6.3484375,3.475 6.6046875,3.6109375 6.7859375,3.88125 C6.9453125,4.1203125 7.0265625,4.4421875 7.0265625,4.8375 C7.0265625,5.2328125 6.9453125,5.553125 6.7859375,5.79375 L6.784375,5.7953125 C6.6046875,6.0640625 6.3484375,6.2 6.0265625,6.2 L6.0265625,6.2 Z M6.0265625,3.7734375 C5.8015625,3.7734375 5.6328125,3.8625 5.5125,4.046875 C5.384375,4.2375 5.3203125,4.5046875 5.3203125,4.8390625 C5.3203125,5.1734375 5.384375,5.440625 5.5109375,5.6296875 C5.6328125,5.8140625 5.8015625,5.903125 6.025,5.903125 C6.2453125,5.903125 6.4140625,5.8125 6.540625,5.628125 C6.6671875,5.4375 6.73125,5.171875 6.73125,4.8375 C6.73125,4.503125 6.6671875,4.2359375 6.540625,4.046875 C6.4171875,3.8625 6.2484375,3.7734375 6.0265625,3.7734375 L6.0265625,3.7734375 Z M6.0265625,5.8765625 C5.853125,5.8765625 5.61875,5.80625 5.4953125,5.46875 C5.4359375,5.30625 5.4078125,5.1 5.4078125,4.8390625 C5.4078125,4.5734375 5.4359375,4.3671875 5.4953125,4.209375 C5.6171875,3.871875 5.8515625,3.8015625 6.0265625,3.8015625 C6.1984375,3.8015625 6.43125,3.871875 6.5578125,4.2078125 C6.6171875,4.365625 6.6453125,4.571875 6.6453125,4.8390625 C6.6453125,5.1015625 6.6171875,5.3078125 6.5578125,5.46875 L6.5578125,5.4703125 C6.43125,5.80625 6.1984375,5.8765625 6.0265625,5.8765625 L6.0265625,5.8765625 Z M6.0265625,4.096875 C5.9390625,4.096875 5.840625,4.121875 5.7734375,4.309375 L5.7734375,4.3109375 C5.728125,4.4328125 5.7046875,4.6109375 5.7046875,4.8375 C5.7046875,5.0609375 5.728125,5.2390625 5.775,5.365625 C5.8453125,5.5546875 5.946875,5.578125 6.028125,5.578125 C6.1078125,5.578125 6.209375,5.553125 6.28125,5.3640625 C6.3265625,5.2375 6.35,5.059375 6.35,4.8359375 C6.35,4.6078125 6.3265625,4.43125 6.28125,4.309375 C6.2078125,4.121875 6.1078125,4.096875 6.0265625,4.096875 L6.0265625,4.096875 Z" id="形状" fill="#FFFFFF"></path>
                            <path d="M8.8546875,3.9640625 C8.9984375,4.1796875 9.0703125,4.471875 9.0703125,4.8375 C9.0703125,5.203125 8.9984375,5.4953125 8.8546875,5.7109375 C8.7,5.9375 8.4875,6.0515625 8.2171875,6.0515625 C7.9421875,6.0515625 7.7296875,5.9375 7.5796875,5.7109375 C7.4359375,5.4953125 7.3640625,5.203125 7.3640625,4.8375 C7.3640625,4.471875 7.4359375,4.1796875 7.5796875,3.9640625 C7.728125,3.7375 7.940625,3.6234375 8.2171875,3.6234375 C8.4890625,3.625 8.7015625,3.7375 8.8546875,3.9640625 Z M7.825,4.259375 C7.771875,4.3984375 7.746875,4.5921875 7.746875,4.8390625 C7.746875,5.08125 7.7734375,5.275 7.825,5.41875 C7.9015625,5.6265625 8.0328125,5.7296875 8.2171875,5.7296875 C8.4,5.7296875 8.53125,5.6265625 8.609375,5.41875 C8.6625,5.275 8.6875,5.08125 8.6875,4.8390625 C8.6875,4.5921875 8.6609375,4.4 8.609375,4.259375 C8.53125,4.0515625 8.4,3.9484375 8.2171875,3.9484375 C8.0296875,3.9484375 7.8984375,4.0515625 7.825,4.259375 Z" id="形状" fill="#FFFFFF"></path>
                            <path d="M8.2171875,6.2 C7.890625,6.2 7.634375,6.0625 7.4546875,5.79375 C7.2953125,5.5546875 7.2140625,5.2328125 7.2140625,4.8375 C7.2140625,4.4421875 7.2953125,4.121875 7.4546875,3.88125 C7.63125,3.6125 7.8875,3.475 8.215625,3.475 C8.5390625,3.475 8.7953125,3.6109375 8.9765625,3.88125 C9.1359375,4.1203125 9.2171875,4.4421875 9.2171875,4.8375 C9.2171875,5.2328125 9.1359375,5.553125 8.9765625,5.79375 L8.975,5.7953125 C8.79375,6.0640625 8.5375,6.2 8.2171875,6.2 Z M8.2171875,3.7734375 C7.9921875,3.7734375 7.8234375,3.8625 7.703125,4.046875 C7.575,4.2375 7.5109375,4.5046875 7.5109375,4.8390625 C7.5109375,5.1734375 7.575,5.440625 7.7015625,5.6296875 C7.8234375,5.8140625 7.9921875,5.903125 8.215625,5.903125 C8.4359375,5.903125 8.6046875,5.8125 8.73125,5.628125 C8.8578125,5.4375 8.921875,5.171875 8.921875,4.8375 C8.921875,4.503125 8.8578125,4.2359375 8.73125,4.046875 C8.6078125,3.8625 8.4390625,3.7734375 8.2171875,3.7734375 Z M8.2171875,5.8765625 C8.04375,5.8765625 7.809375,5.80625 7.6859375,5.46875 C7.6265625,5.30625 7.5984375,5.1 7.5984375,4.8390625 C7.5984375,4.5734375 7.6265625,4.3671875 7.6859375,4.209375 C7.8078125,3.871875 8.0421875,3.8015625 8.21875,3.8015625 C8.390625,3.8015625 8.6234375,3.871875 8.75,4.2078125 C8.809375,4.365625 8.8375,4.571875 8.8375,4.8390625 C8.8375,5.1015625 8.809375,5.3078125 8.75,5.46875 L8.75,5.4703125 C8.621875,5.80625 8.3890625,5.8765625 8.2171875,5.8765625 L8.2171875,5.8765625 Z M8.2171875,4.096875 C8.1296875,4.096875 8.03125,4.121875 7.9640625,4.309375 L7.9640625,4.3109375 C7.91875,4.4328125 7.8953125,4.6109375 7.8953125,4.8375 C7.8953125,5.0609375 7.91875,5.2390625 7.965625,5.365625 C8.0359375,5.5546875 8.1375,5.578125 8.21875,5.578125 C8.2984375,5.578125 8.4,5.553125 8.471875,5.3640625 C8.5171875,5.2375 8.540625,5.059375 8.540625,4.8359375 C8.540625,4.6078125 8.5171875,4.43125 8.471875,4.309375 C8.3984375,4.121875 8.296875,4.096875 8.2171875,4.096875 L8.2171875,4.096875 Z" id="形状" fill="#FFFFFF"></path>
                        </g>
                    </g>
                </g>
            </g>
        </g>
    </g>
</svg>