<?xml version="1.0" encoding="UTF-8"?>
<svg width="14px" height="12px" viewBox="0 0 14 12" version="1.1" xmlns="http://www.w3.org/2000/svg" xmlns:xlink="http://www.w3.org/1999/xlink">
    <!-- Generator: Sketch 61.2 (89653) - https://sketch.com -->
    <title>科目管理</title>
    <desc>Created with Sketch.</desc>
    <g id="教师信息管理" stroke="none" stroke-width="1" fill="none" fill-rule="evenodd">
        <g transform="translate(-22.000000, -410.000000)" fill-rule="nonzero" id="nav">
            <g transform="translate(-1.000000, 0.000000)">
                <g id="科目管理" transform="translate(0.000000, 388.000000)">
                    <g id="sidebar/1">
                        <g id="科目管理" transform="translate(22.000000, 20.000000)">
                            <rect id="矩形" fill="#000000" opacity="0" x="0" y="0" width="16" height="16"></rect>
                            <path d="M5.26240625,2.97440625 L13.9424062,2.97440625 C14.1952031,2.97440625 14.4,3.17920312 14.4,3.432 C14.4,3.68479687 14.1952031,3.888 13.9424062,3.888 L5.26240625,3.888 C5.00959375,3.888 4.80479687,3.68320312 4.80479687,3.43040625 C4.80479687,3.17760937 5.01120312,2.97440625 5.26240625,2.97440625 Z M5.26240625,7.54240625 L10.3807812,7.54240625 C10.6335937,7.54240625 10.8383906,7.74720312 10.8383906,8 C10.8383906,8.25279687 10.6335781,8.45759375 10.3807812,8.45759375 L5.26240625,8.45759375 C5.00959375,8.45759375 4.80479688,8.25279687 4.80479688,8 C4.80479688,7.74720312 5.01120312,7.54240625 5.26240625,7.54240625 Z M5.26240625,12.112 L8.46078125,12.112 C8.71359375,12.112 8.91839063,12.3167969 8.91839063,12.5695938 C8.91839063,12.8223906 8.71357813,13.0272031 8.46078125,13.0272031 L5.26240625,13.0272031 C5.00959375,13.0272031 4.80479688,12.8224063 4.80479688,12.5695938 C4.80640625,12.3167969 5.01120313,12.112 5.26240625,12.112 Z M3.43520313,2.06079687 L2.52160938,2.06079687 C2.01759375,2.06079687 1.608,2.47040625 1.608,2.97439062 L1.608,3.888 C1.608,4.392 2.01759375,4.80159375 2.52159375,4.80159375 L3.4351875,4.80159375 C3.93920313,4.80159375 4.34879688,4.392 4.34879688,3.888 L4.34879688,2.97440625 C4.34879688,2.47040625 3.94079688,2.06079687 3.43520313,2.06079687 L3.43520313,2.06079687 Z M3.43520313,3.888 L2.52160938,3.888 L2.52160938,2.97440625 L3.43520313,2.97440625 L3.43520313,3.888 Z M3.43520313,6.62879687 L2.52160938,6.62879687 C2.01759375,6.62879687 1.608,7.03840625 1.608,7.54239062 L1.608,8.456 C1.608,8.96 2.01759375,9.36959375 2.52159375,9.36959375 L3.4351875,9.36959375 C3.93920313,9.36959375 4.34879688,8.96 4.34879688,8.456 L4.34879688,7.54240625 C4.34879688,7.03840625 3.94079688,6.62879687 3.43520313,6.62879687 L3.43520313,6.62879687 Z M3.43520313,8.45759375 L2.52160938,8.45759375 L2.52160938,7.544 L3.43520313,7.544 L3.43520313,8.45759375 Z M3.43520313,11.1984062 L2.52160938,11.1984062 C2.01759375,11.1984062 1.608,11.608 1.608,12.112 L1.608,13.0255938 C1.608,13.5295938 2.01759375,13.9391875 2.52159375,13.9391875 L3.4351875,13.9391875 C3.93920313,13.9391875 4.34879688,13.5295938 4.34879688,13.0255938 L4.34879688,12.112 C4.34879688,11.6064063 3.94079688,11.1984062 3.43520313,11.1984062 L3.43520313,11.1984062 Z M3.43520313,13.0255938 L2.52160938,13.0255938 L2.52160938,12.112 L3.43520313,12.112 L3.43520313,13.0255938 Z" id="形状" fill="#FFFFFF"></path>
                        </g>
                    </g>
                </g>
            </g>
        </g>
    </g>
</svg>