<?xml version="1.0" encoding="UTF-8"?>
<svg width="11px" height="12px" viewBox="0 0 11 12" version="1.1" xmlns="http://www.w3.org/2000/svg" xmlns:xlink="http://www.w3.org/1999/xlink">
    <!-- Generator: Sketch 61.2 (89653) - https://sketch.com -->
    <title>icon/user</title>
    <desc>Created with Sketch.</desc>
    <g id="教师信息管理" stroke="none" stroke-width="1" fill="none" fill-rule="evenodd">
        <g transform="translate(-23.000000, -128.000000)" fill="#FFFFFF" id="nav">
            <g transform="translate(-1.000000, 0.000000)">
                <g id="教师管理" transform="translate(2.000000, 105.000000)">
                    <g id="sidebar/1">
                        <g id="icon/user" transform="translate(19.000000, 21.000000)">
                            <g id="user" transform="translate(3.000000, 2.000000)">
                                <path d="M5.5,6 C6.21180556,5.98263889 6.80208333,5.73958333 7.27083333,5.27083333 C7.73958333,4.80208333 7.98263889,4.21180556 8,3.5 C7.98263889,2.78819444 7.73958333,2.19791667 7.27083333,1.72916667 C6.80208333,1.26041667 6.21180556,1.01736111 5.5,1 C4.78819444,1.01736111 4.19791667,1.26041667 3.72916667,1.72916667 C3.26041667,2.19791667 3.01736111,2.78819444 3,3.5 C3.01736111,4.21180556 3.26041667,4.80208333 3.72916667,5.27083333 C4.19791667,5.73958333 4.78819444,5.98263889 5.5,6 Z M5.5,7 C4.50651042,6.97265625 3.68164062,6.63085938 3.02539062,5.97460938 C2.36914062,5.31835938 2.02734375,4.49348958 2,3.5 C2.02734375,2.50651042 2.36914062,1.68164062 3.02539062,1.02539062 C3.68164062,0.369140625 4.50651042,0.02734375 5.5,0 C6.49348958,0.02734375 7.31835938,0.369140625 7.97460938,1.02539062 C8.63085938,1.68164062 8.97265625,2.50651042 9,3.5 C8.97265625,4.49348958 8.63085938,5.31835938 7.97460938,5.97460938 C7.31835938,6.63085938 6.49348958,6.97265625 5.5,7 Z M9.625,11.5555556 L9.625,10.2222222 C9.61588542,9.84259259 9.48828125,9.52777778 9.2421875,9.27777778 C8.99609375,9.02777778 8.68619792,8.89814815 8.3125,8.88888889 L2.1875,8.88888889 C1.81380208,8.89814815 1.50390625,9.02777778 1.2578125,9.27777778 C1.01171875,9.52777778 0.884114583,9.84259259 0.875,10.2222222 L0.875,11.5555556 C0.875,11.6851852 0.833984375,11.7916667 0.751953125,11.875 C0.669921875,11.9583333 0.565104167,12 0.4375,12 C0.309895833,12 0.205078125,11.9583333 0.123046875,11.875 C0.041015625,11.7916667 0,11.6851852 0,11.5555556 L0,10.2222222 C0.0182291667,9.59259259 0.232421875,9.06944444 0.642578125,8.65277778 C1.05273438,8.23611111 1.56770833,8.01851852 2.1875,8 L8.3125,8 C8.93229167,8.01851852 9.44726562,8.23611111 9.85742188,8.65277778 C10.2675781,9.06944444 10.4817708,9.59259259 10.5,10.2222222 L10.5,11.5555556 C10.5,11.6851852 10.4589844,11.7916667 10.3769531,11.875 C10.2949219,11.9583333 10.1901042,12 10.0625,12 C9.93489583,12 9.83007812,11.9583333 9.74804688,11.875 C9.66601562,11.7916667 9.625,11.6851852 9.625,11.5555556 Z" id="形状"></path>
                            </g>
                        </g>
                    </g>
                </g>
            </g>
        </g>
    </g>
</svg>