<?xml version="1.0" encoding="UTF-8"?>
<svg width="16px" height="16px" viewBox="0 0 16 16" version="1.1" xmlns="http://www.w3.org/2000/svg" xmlns:xlink="http://www.w3.org/1999/xlink">
    <!-- Generator: Sketch 61.2 (89653) - https://sketch.com -->
    <title>主观题</title>
    <desc>Created with Sketch.</desc>
    <g id="题库管理-解答管理" stroke="none" stroke-width="1" fill="none" fill-rule="evenodd">
        <g transform="translate(-57.000000, -852.000000)" fill-rule="nonzero" id="nav">
            <g transform="translate(-2.000000, 0.000000)">
                <g id="批量上传信息" transform="translate(4.000000, 836.000000)">
                    <g id="sidebar/1">
                        <g id="主观题" transform="translate(55.000000, 16.000000)">
                            <rect id="矩形" fill="#000000" opacity="0" x="0" y="0" width="16" height="16"></rect>
                            <path d="M6.17142858,4.8 L7.42857142,4.8 L7.42857142,11.2 L6.17142858,11.2 L6.17142858,12 L9.82857142,12 L9.82857142,11.2 L8.57142858,11.2 L8.57142858,4.8 L9.82857142,4.8 L9.82857142,4 L6.17142858,4 L6.17142858,4.8 Z M14.2857143,16 L1.71428572,16 C0.8,16 0,15.2 0,14.2857143 L0,1.71428572 C0,0.8 0.8,0 1.71428572,0 L14.2857143,0 C15.2,0 16,0.8 16,1.71428572 L16,14.2857143 C16,15.2 15.2,16 14.2857143,16 Z M1.71428572,1.14285714 C1.37142858,1.14285714 1.14285714,1.37142856 1.14285714,1.71428572 L1.14285714,14.2857143 C1.14285714,14.6285714 1.37142856,14.8571429 1.71428572,14.8571429 L14.2857143,14.8571429 C14.6285714,14.8571429 14.8571429,14.6285714 14.8571429,14.2857143 L14.8571429,1.71428572 C14.8571429,1.37142858 14.6285714,1.14285714 14.2857143,1.14285714 L1.71428572,1.14285714 Z" id="形状" fill="#FFFFFF"></path>
                        </g>
                    </g>
                </g>
            </g>
        </g>
    </g>
</svg>