<?xml version="1.0" encoding="UTF-8"?>
<svg width="13px" height="13px" viewBox="0 0 13 13" version="1.1" xmlns="http://www.w3.org/2000/svg" xmlns:xlink="http://www.w3.org/1999/xlink">
    <!-- Generator: Sketch 61.2 (89653) - https://sketch.com -->
    <title>单选填空</title>
    <desc>Created with Sketch.</desc>
    <g id="题库管理-多选管理" stroke="none" stroke-width="1" fill="none" fill-rule="evenodd">
        <g transform="translate(-196.000000, -855.000000)" fill-rule="nonzero" id="单选填空">
            <g transform="translate(194.000000, 853.000000)">
                <rect id="矩形" fill="#000000" opacity="0" x="0" y="0" width="16" height="16"></rect>
                <path d="M12.152,8.624 L8.896,11.336 L7.376,9.872 C7.27569557,9.76046684 7.12142081,9.71442713 6.97639607,9.75274753 C6.83137134,9.79106792 6.71997596,9.90730658 6.68785872,10.05383 C6.65574148,10.2003534 6.70830143,10.3525303 6.824,10.448 L8.608,12.16 C8.76024764,12.2974074 8.99175236,12.2974074 9.144,12.16 L12.672,9.208 C12.7806087,9.11511095 12.8314116,8.97133585 12.8052717,8.83083339 C12.7791318,8.69033093 12.6800204,8.57444678 12.5452717,8.52683338 C12.4105231,8.47921998 12.2606087,8.50711094 12.152,8.6 L12.152,8.624 Z" id="路径" fill="#FFFFFF"></path>
                <path d="M12.464,2.192 L4.464,2.192 C3.3594305,2.192 2.464,3.0874305 2.464,4.192 L2.464,12.192 C2.464,13.2965695 3.3594305,14.192 4.464,14.192 L12.464,14.192 C13.5685695,14.192 14.464,13.2965695 14.464,12.192 L14.464,4.192 C14.464,3.0874305 13.5685695,2.192 12.464,2.192 Z M13.664,12.192 C13.664,12.8547417 13.1267417,13.392 12.464,13.392 L4.464,13.392 C3.8012583,13.392 3.264,12.8547417 3.264,12.192 L3.264,4.192 C3.264,3.5292583 3.8012583,2.992 4.464,2.992 L12.464,2.992 C13.1267417,2.992 13.664,3.5292583 13.664,4.192 L13.664,12.192 Z" id="形状" fill="#FFFFFF"></path>
                <path d="M11.664,5.216 L5.264,5.216 C5.04308611,5.216 4.86400002,5.39508611 4.86400002,5.616 C4.86400002,5.83691389 5.04308611,6.016 5.264,6.016 L11.664,6.016 C11.8849139,6.016 12.064,5.83691389 12.064,5.616 C12.064,5.39508611 11.8849139,5.216 11.664,5.216 L11.664,5.216 Z M5.264,8.648 L7.152,8.648 C7.29490624,8.648 7.42695706,8.57176044 7.49841018,8.44800001 C7.5698633,8.32423957 7.5698633,8.17176043 7.49841018,8.04799999 C7.42695706,7.92423956 7.29490624,7.848 7.152,7.848 L5.264,7.848 C5.0430861,7.848 4.864,8.0270861 4.864,8.248 C4.864,8.4689139 5.0430861,8.648 5.264,8.648 Z" id="形状" fill="#FFFFFF"></path>
            </g>
        </g>
    </g>
</svg>