<?xml version="1.0" encoding="UTF-8"?>
<svg width="16px" height="14px" viewBox="0 0 16 14" version="1.1" xmlns="http://www.w3.org/2000/svg" xmlns:xlink="http://www.w3.org/1999/xlink">
    <!-- Generator: Sketch 61.2 (89653) - https://sketch.com -->
    <title>公告</title>
    <desc>Created with Sketch.</desc>
    <g id="教师信息管理" stroke="none" stroke-width="1" fill="none" fill-rule="evenodd">
        <g transform="translate(-21.000000, -522.000000)" fill-rule="nonzero" id="nav">
            <g transform="translate(-1.000000, 0.000000)">
                <g id="公告管理" transform="translate(3.000000, 500.000000)">
                    <g id="sidebar/1">
                        <g id="公告" transform="translate(15.000000, 21.000000)">
                            <rect id="矩形" fill="#000000" opacity="0" x="0" y="0" width="16" height="16"></rect>
                            <path d="M10.10488,4.76568 C13.26512,3.78336 16.42632,2.80096 19.58752,1.81856 L19.0812,1.43288 L19.0812,11.97024 L19.58752,11.58456 C16.44928,10.7548 13.31112,9.92504 10.174,9.09528 C9.67464,8.96328 9.46304,9.73496 9.96136,9.86672 C13.09848,10.69648 16.23672,11.52624 19.37488,12.356 C19.62608,12.4224 19.8812,12.23232 19.8812,11.97032 L19.8812,1.43296 C19.8812,1.17936 19.62472,0.9696 19.37488,1.04728 C16.2136,2.0296 13.05248,3.012 9.89224,3.9944 C9.4012,4.14688 9.6108,4.9192 10.10488,4.76568 Z M10.078,8.93328 C9.18336,9.796 7.86008,10.04352 6.72768,9.51032 C5.73904,9.04488 5.10792,8.0456 5.05432,6.96456 C4.99968,5.86376 5.60672,4.84616 6.54096,4.29224 C7.64544,3.63744 9.07392,3.85312 10.00704,4.7012 C10.38784,5.04728 10.95528,4.48312 10.57272,4.13552 C9.39624,3.0664 7.75856,2.8268 6.32384,3.5024 C5.046,4.10408 4.2752,5.4676 4.25232,6.85184 C4.22904,8.2584 5.08664,9.56976 6.32384,10.20104 C7.75704,10.9324 9.50232,10.59944 10.64368,9.49888 C11.0156,9.14032 10.44928,8.5752 10.078,8.93328 L10.078,8.93328 Z M10.4676,7.33088 L10.4676,4.28296 C10.4676,3.76704 9.6676,3.76704 9.6676,4.28296 L9.6676,7.33088 C9.6676,7.84672 10.4676,7.84672 10.4676,7.33088 L10.4676,7.33088 Z M10.04472,9.70824 L10.04472,12.20648 C10.04472,12.38656 10.1672,12.54208 10.3384,12.59216 C12.40512,13.19672 14.47216,13.80128 16.5396,14.40584 C16.79008,14.47912 17.04592,14.27712 17.04592,14.02016 L17.04592,11.18992 C17.04592,10.67408 16.24592,10.67408 16.24592,11.18992 L16.24592,14.02016 L16.75224,13.63448 C14.6851324,13.0300601 12.6180657,12.4255001 10.55104,11.8208 L10.84472,12.20648 L10.84472,9.70824 C10.84472,9.19232 10.04472,9.19232 10.04472,9.70824 L10.04472,9.70824 Z" id="形状" fill="#FFFFFF"></path>
                        </g>
                    </g>
                </g>
            </g>
        </g>
    </g>
</svg>