<?xml version="1.0" encoding="UTF-8"?>
<svg width="16px" height="15px" viewBox="0 0 16 15" version="1.1" xmlns="http://www.w3.org/2000/svg" xmlns:xlink="http://www.w3.org/1999/xlink">
    <!-- Generator: Sketch 61.2 (89653) - https://sketch.com -->
    <title>单选框</title>
    <desc>Created with Sketch.</desc>
    <g id="题库管理-解答管理" stroke="none" stroke-width="1" fill="none" fill-rule="evenodd">
        <g transform="translate(-95.000000, -630.000000)" fill-rule="nonzero" id="nav">
            <g transform="translate(-2.000000, 0.000000)">
                <g id="批量上传信息" transform="translate(3.000000, 614.000000)">
                    <g id="sidebar/1">
                        <g id="单选框" transform="translate(94.000000, 16.000000)">
                            <rect id="矩形" fill="#000000" opacity="0" x="0" y="0" width="14.7073609" height="14.7073609"></rect>
                            <path d="M5.48966963,2.23308595 L15.3394396,2.23308595 C15.7736507,2.23308595 15.9907563,2.45019153 15.9907563,2.88440269 L15.9907563,2.88440269 C15.9907563,3.31861385 15.7736507,3.53571943 15.3394396,3.53571943 L5.48966963,3.53571943 C5.05545847,3.53571943 4.83835289,3.31861385 4.83835289,2.88440269 L4.83835289,2.88440269 C4.83835289,2.45019153 5.05545847,2.23308595 5.48966963,2.23308595 Z" id="路径" fill="#FFFFFF"></path>
                            <path d="M5.48966963,7.53666508 L15.3394396,7.53666508 C15.7736507,7.53666508 15.9907563,7.75377066 15.9907563,8.18798182 L15.9907563,8.18798182 C15.9907563,8.62219298 15.7736507,8.83929854 15.3394396,8.83929854 L5.48966963,8.83929854 C5.05545847,8.83929854 4.83835289,8.62219297 4.83835289,8.18798182 L4.83835289,8.18798182 C4.83835289,7.75377066 5.05545847,7.53666508 5.48966963,7.53666508 Z" id="路径" fill="#FFFFFF"></path>
                            <path d="M5.48966963,12.8402442 L15.3394396,12.8402442 C15.7736507,12.8402442 15.9907563,13.0573498 15.9907563,13.4915609 L15.9907563,13.4915609 C15.9907563,13.9257721 15.7736507,14.1428777 15.3394396,14.1428777 L5.48966963,14.1428777 C5.05545847,14.1428777 4.83835289,13.9257721 4.83835289,13.4915609 L4.83835289,13.4915609 C4.83835289,13.0573498 5.05545847,12.8402442 5.48966963,12.8402442 Z" id="路径" fill="#FFFFFF"></path>
                            <path d="M2.04699545,0 C0.916471081,0 1.43626579e-08,0.91647109 1.43626579e-08,2.04699546 C1.43626579e-08,3.17751982 0.9164711,4.09399089 2.04699547,4.09399089 C3.17751983,4.09399089 4.09399091,3.17751981 4.09399091,2.04699545 C4.09399091,1.5040985 3.87832593,0.983437194 3.49443982,0.59955108 C3.1105537,0.215664967 2.5898924,0 2.04699545,0 Z M2.04699545,3.34962893 C1.32757085,3.34962893 0.744361996,2.76642005 0.744361996,2.04699546 C0.744361996,1.32757086 1.32757086,0.744361996 2.04699546,0.744361996 C2.76642005,0.744361996 3.34962893,1.32757085 3.34962893,2.04699545 C3.34962893,2.39247533 3.21238758,2.72380525 2.96809642,2.96809642 C2.72380525,3.21238758 2.39247533,3.34962893 2.04699545,3.34962893 Z M2.04699545,5.30357913 C0.916471081,5.30357913 1.43626579e-08,6.22005022 1.43626579e-08,7.35057459 C1.43626579e-08,8.48109895 0.9164711,9.39757003 2.04699547,9.39757003 C3.17751983,9.39757003 4.09399091,8.48109894 4.09399091,7.35057458 C4.09399091,6.80767763 3.87832593,6.28701632 3.49443982,5.90313021 C3.1105537,5.5192441 2.5898924,5.30357913 2.04699545,5.30357913 L2.04699545,5.30357913 Z M2.04699545,8.65320806 C1.32757085,8.65320806 0.744361996,8.06999918 0.744361996,7.35057459 C0.744361996,6.63114999 1.32757086,6.04794113 2.04699546,6.04794113 C2.76642005,6.04794113 3.34962893,6.63114998 3.34962893,7.35057458 C3.34962893,7.69605446 3.21238758,8.02738438 2.96809642,8.27167555 C2.72380525,8.51596671 2.39247533,8.65320806 2.04699545,8.65320806 L2.04699545,8.65320806 Z M2.04699545,10.6071583 C0.916471081,10.6071583 1.43626579e-08,11.5236294 1.43626579e-08,12.6541537 C1.43626579e-08,13.7846781 0.9164711,14.7011492 2.04699547,14.7011492 C3.17751983,14.7011492 4.09399091,13.7846781 4.09399091,12.6541537 C4.09399091,12.1112568 3.87832593,11.5905955 3.49443982,11.2067093 C3.1105537,10.8228232 2.5898924,10.6071583 2.04699545,10.6071583 L2.04699545,10.6071583 Z M2.04699545,13.9567872 C1.32757085,13.9567872 0.744361996,13.3735783 0.744361996,12.6541537 C0.744361996,11.9347291 1.32757087,11.3515202 2.04699547,11.3515202 C2.76642006,11.3515202 3.34962893,11.9347291 3.34962893,12.6541537 C3.34962893,12.9996336 3.21238758,13.3309635 2.96809641,13.5752547 C2.72380525,13.8195458 2.39247532,13.9567872 2.04699545,13.9567872 L2.04699545,13.9567872 Z" id="形状" fill="#FFFFFF"></path>
                            <path d="M1.30263346,2.04699545 C1.30263346,2.31293037 1.44450805,2.55866438 1.67481445,2.69163184 C1.90512085,2.82459931 2.18887004,2.82459931 2.41917644,2.69163184 C2.64948284,2.55866438 2.79135743,2.31293037 2.79135743,2.04699545 C2.79135743,1.63589568 2.45809522,1.30263346 2.04699545,1.30263346 C1.63589568,1.30263346 1.30263346,1.63589568 1.30263346,2.04699545 Z" id="路径" fill="#FFFFFF"></path>
                        </g>
                    </g>
                </g>
            </g>
        </g>
    </g>
</svg>