<?xml version="1.0" encoding="UTF-8"?>
<svg width="16px" height="16px" viewBox="0 0 16 16" version="1.1" xmlns="http://www.w3.org/2000/svg" xmlns:xlink="http://www.w3.org/1999/xlink">
    <!-- Generator: Sketch 61.2 (89653) - https://sketch.com -->
    <title>单选框 选中</title>
    <desc>Created with Sketch.</desc>
    <g id="题库管理-解答管理" stroke="none" stroke-width="1" fill="none" fill-rule="evenodd">
        <g transform="translate(-60.000000, -574.000000)" fill-rule="nonzero" id="nav">
            <g transform="translate(-2.000000, 0.000000)">
                <g id="学生信息管理" transform="translate(2.000000, 558.000000)">
                    <g id="sidebar/1">
                        <g id="单选框-选中" transform="translate(60.000000, 16.000000)">
                            <rect id="矩形" fill="#000000" opacity="0" x="0" y="0" width="16" height="16"></rect>
                            <path d="M7.771,15.583 C3.625,15.583 0.25,12.209 0.25,8.062 C0.25,3.915 3.624,0.541 7.771,0.541 C11.918,0.541 15.292,3.915 15.292,8.062 C15.292,12.209 11.918,15.583 7.771,15.583 Z M7.771,1.041 C3.9,1.041 0.75,4.19 0.75,8.062 C0.75,11.934 3.899,15.083 7.771,15.083 C11.643,15.083 14.792,11.934 14.792,8.062 C14.792,4.19 11.643,1.041 7.771,1.041 Z M4.927,8 C4.927,9.69717104 6.30282896,11.073 8,11.073 C9.69717104,11.073 11.073,9.69717104 11.073,8 C11.073,6.90212283 10.4872895,5.88764249 9.53650001,5.3387039 C8.5857105,4.78976531 7.4142895,4.78976531 6.46349999,5.3387039 C5.51271047,5.88764249 4.927,6.90212283 4.927,8 Z" id="形状" fill="#FFFFFF"></path>
                        </g>
                    </g>
                </g>
            </g>
        </g>
    </g>
</svg>