<?xml version="1.0" encoding="UTF-8"?>
<svg width="14px" height="12px" viewBox="0 0 14 12" version="1.1" xmlns="http://www.w3.org/2000/svg" xmlns:xlink="http://www.w3.org/1999/xlink">
    <!-- Generator: Sketch 61.2 (89653) - https://sketch.com -->
    <title>学生</title>
    <desc>Created with Sketch.</desc>
    <g id="教师信息管理" stroke="none" stroke-width="1" fill="none" fill-rule="evenodd">
        <g transform="translate(-22.000000, -296.000000)" fill-rule="nonzero" id="nav">
            <g transform="translate(-1.000000, 0.000000)">
                <g id="学生管理" transform="translate(3.000000, 274.000000)">
                    <g id="sidebar/1">
                        <g id="学生" transform="translate(19.000000, 20.000000)">
                            <rect id="矩形" fill="#000000" opacity="0" x="0" y="0" width="16" height="16"></rect>
                            <path d="M7.8125,10.2921875 C7.7515625,10.2921875 7.6921875,10.2765625 7.6375,10.2453125 L1.1953125,6.49375 C1.0875,6.43125 1.021875,6.3140625 1.02341021,6.1890625 C1.025,6.0640625 1.09375,5.95 1.203125,5.8890625 L8.021875,2.1375 C8.128125,2.078125 8.2578125,2.0796875 8.3640625,2.1421875 L14.8078125,5.8921875 C14.915625,5.9546875 14.98125,6.071875 14.9797148,6.196875 C14.978125,6.321875 14.909375,6.4359375 14.8,6.496875 L7.9796875,10.2484375 C7.928125,10.278125 7.8703125,10.2921875 7.8125,10.2921875 L7.8125,10.2921875 Z M2.075,6.203125 L7.81875,9.546875 L13.9265625,6.1859375 L8.1828125,2.8421875 L2.075,6.203125 Z" id="形状" fill="#FFFFFF"></path>
                            <path d="M13.5787188,6.6365 L14.2740313,6.629875 L14.3115938,10.5720625 L13.6162813,10.5786875 L13.5787188,6.6365 Z M8.0515625,13.9046875 C5.48125,13.9046875 3.390625,11.8140625 3.390625,9.24375 L3.390625,7.6171875 L4.0859375,7.6171875 L4.0859375,9.24375 C4.0859375,11.43125 5.865625,13.209375 8.0515625,13.209375 C10.2375,13.209375 12.0171875,11.4296875 12.0171875,9.24375 L12.0171875,7.3515625 L12.7125,7.3515625 L12.7125,9.24375 C12.7125,11.8140625 10.621875,13.9046875 8.0515625,13.9046875 L8.0515625,13.9046875 Z" id="形状" fill="#FFFFFF"></path>
                        </g>
                    </g>
                </g>
            </g>
        </g>
    </g>
</svg>