<?xml version="1.0" encoding="UTF-8"?>
<svg width="12px" height="13px" viewBox="0 0 12 13" version="1.1" xmlns="http://www.w3.org/2000/svg" xmlns:xlink="http://www.w3.org/1999/xlink">
    <!-- Generator: Sketch 61.2 (89653) - https://sketch.com -->
    <title>用户</title>
    <desc>Created with Sketch.</desc>
    <g id="教师信息管理" stroke="none" stroke-width="1" fill="none" fill-rule="evenodd">
        <g transform="translate(-23.000000, -126.000000)" fill-rule="nonzero" id="nav">
            <g transform="translate(-1.000000, 0.000000)">
                <g id="教师管理" transform="translate(2.000000, 105.000000)">
                    <g id="sidebar/1">
                        <g id="用户" transform="translate(20.000000, 20.000000)">
                            <rect id="矩形" fill="#000000" opacity="0" x="0" y="0" width="16" height="16"></rect>
                            <path d="M10.1765003,8.53090405 C11.169587,7.86193361 11.8227282,6.73034883 11.8227282,5.44445266 C11.8227282,3.36111316 10.0982814,1.66357609 7.98189228,1.66357609 C5.86545522,1.66357609 4.16687886,3.36111316 4.16687886,5.41861417 C4.16687886,6.70451033 4.82033981,7.83641491 5.81309073,8.50503358 C3.56613417,9.37972055 1.99847705,11.4904974 1.99847705,13.9854778 L1.99847705,13.9854778 L3.06975072,13.9854778 L3.06975072,13.9854778 C3.06975072,11.5163199 4.97706556,9.48238694 7.40695409,9.19949075 C7.43311236,9.19949075 8.08626952,9.14816555 8.63500148,9.19949075 L8.68734998,9.19949075 L8.68734998,9.19949075 C11.0652258,9.53406391 12.8939859,11.5402237 12.8939859,13.9835432 L12.8939859,13.9835432 L13.9914818,13.9835432 L13.9914818,13.9835432 C13.9653075,11.5144012 12.3976184,9.37973653 10.1765003,8.53090405 L10.1765003,8.53090405 Z M7.98189228,8.24775203 C6.38801294,8.24775203 5.1079848,6.98767836 5.1079848,5.41863017 C5.1079848,3.84958198 6.38801294,2.58952431 7.98189228,2.58952431 C9.57575564,2.58952431 10.8557838,3.849582 10.8557838,5.41863017 C10.8557838,6.98767836 9.57575564,8.24775203 7.98189228,8.24775203 L7.98189228,8.24775203 Z" id="形状" fill="#FFFFFF"></path>
                        </g>
                    </g>
                </g>
            </g>
        </g>
    </g>
</svg>